<svg width="972" height="629" viewBox="0 0 972 629" fill="none" xmlns="http://www.w3.org/2000/svg">
<g clip-path="url(#clip0_622_468)">
<path d="M733.457 500.406C730.799 482.499 730.096 464.355 731.363 446.295L733.457 416.406C721.915 439.372 724.524 469.598 733.457 500.406V500.406Z" fill="#333333"/>
<path d="M742.457 505.406C741.177 494.72 740.84 483.942 741.449 473.197L742.457 455.406C736.904 469.076 738.159 487.068 742.457 505.406Z" fill="#333333"/>
<path d="M782.462 527.408V537.408C782.458 538.203 782.14 538.963 781.579 539.525C781.017 540.087 780.256 540.404 779.462 540.408H774.462C774.33 540.408 774.2 540.433 774.079 540.483C773.957 540.533 773.847 540.607 773.754 540.7C773.661 540.793 773.587 540.903 773.537 541.025C773.487 541.147 773.461 541.277 773.462 541.408V623.408C773.458 624.203 773.14 624.963 772.579 625.525C772.017 626.087 771.256 626.404 770.462 626.408H709.462C708.666 626.408 707.904 626.091 707.341 625.529C706.779 624.966 706.463 624.204 706.462 623.408V541.408C706.461 541.143 706.356 540.889 706.168 540.702C705.981 540.515 705.727 540.409 705.462 540.408H699.462C698.666 540.408 697.904 540.091 697.341 539.529C696.779 538.966 696.463 538.204 696.462 537.408V527.408C696.461 527.014 696.539 526.624 696.689 526.259C696.84 525.895 697.061 525.564 697.339 525.286C697.618 525.007 697.949 524.786 698.313 524.635C698.677 524.485 699.068 524.408 699.462 524.408H779.462C780.257 524.411 781.019 524.727 781.581 525.289C782.143 525.852 782.46 526.613 782.462 527.408V527.408Z" fill="#3F3D56"/>
<path d="M773.552 542.508H706.552V545.508H773.552V542.508Z" fill="#2F2E41"/>
<path d="M773.462 586.653C751.042 595.931 728.378 596.033 705.462 586.653V565.518C727.523 558.109 751.401 558.109 773.462 565.518V586.653Z" fill="#2F2E41"/>
<path d="M451.482 250.381C471.583 250.381 487.877 234.086 487.877 213.986C487.877 193.885 471.583 177.59 451.482 177.59C431.381 177.59 415.086 193.885 415.086 213.986C415.086 234.086 431.381 250.381 451.482 250.381Z" fill="#2F2E41"/>
<path d="M461.621 178.591C467.92 178.592 474.111 180.227 479.588 183.337C485.066 186.447 489.643 190.925 492.871 196.333C496.1 201.742 497.87 207.895 498.008 214.193C498.147 220.49 496.649 226.715 493.66 232.26C496.816 228.312 499.114 223.75 500.409 218.865C501.704 213.98 501.967 208.878 501.181 203.886C500.395 198.893 498.578 194.119 495.846 189.867C493.113 185.616 489.524 181.98 485.309 179.192C481.093 176.404 476.343 174.525 471.362 173.674C466.38 172.824 461.275 173.02 456.373 174.251C451.472 175.482 446.88 177.721 442.891 180.825C438.903 183.928 435.604 187.829 433.206 192.278C436.608 188.006 440.93 184.557 445.85 182.188C450.77 179.818 456.16 178.589 461.621 178.591V178.591Z" fill="#2F2E41"/>
<path d="M383.47 213.908C442.516 213.908 490.383 166.042 490.383 106.995C490.383 47.9494 442.516 0.0830078 383.47 0.0830078C324.424 0.0830078 276.558 47.9494 276.558 106.995C276.558 166.042 324.424 213.908 383.47 213.908Z" fill="#2F2E41"/>
<path d="M299.562 40.6619C317.984 19.944 343.734 7.19379 371.379 5.10227C399.024 3.01075 426.4 11.7416 447.729 29.452C446.855 28.621 445.99 27.7832 445.081 26.9756C423.887 8.15086 396.085 -1.48642 367.787 0.182746C339.489 1.85192 313.013 14.6909 294.179 35.8767C275.345 57.0625 265.696 84.8607 267.353 113.159C269.01 141.458 281.838 167.94 303.015 186.783C303.924 187.59 304.857 188.351 305.785 189.122C285.698 170.014 273.82 143.849 272.659 116.15C271.498 88.4508 281.144 61.3839 299.562 40.6619Z" fill="#2F2E41"/>
<path d="M382.565 213.002C420.595 213.002 451.424 182.173 451.424 144.143C451.424 106.113 420.595 75.2842 382.565 75.2842C344.535 75.2842 313.706 106.113 313.706 144.143C313.706 182.173 344.535 213.002 382.565 213.002Z" fill="#FFB8B8"/>
<path d="M417.741 231.695L344.052 235.008C344.052 235.008 350.202 273.116 310.337 276.74C270.471 280.364 234.23 269.492 219.733 296.673C205.236 323.854 211.485 420.639 211.485 420.639C211.485 420.639 238.666 518.491 260.411 532.988C282.156 547.485 472.424 527.552 472.424 527.552L552.052 427.008L549.355 349.468C547.947 308.977 510.978 278.577 471.162 286.07C470.38 286.217 469.592 286.376 468.8 286.546C468.8 286.546 460.052 280.008 436.052 268.008C421.375 260.67 417.741 231.695 417.741 231.695Z" fill="#406CBF"/>
<path d="M257.786 274.928C257.786 274.928 275.3 306.706 268.052 352.008C260.803 397.31 291.216 493.122 291.216 493.122L312.961 487.686C312.961 487.686 298.464 393.458 302.088 371.713C305.712 349.968 306.712 285.8 288.592 274.928C270.471 264.055 257.786 274.928 257.786 274.928Z" fill="#2F2E41"/>
<path d="M467.525 291.59L475.142 492.216L489.638 501.277C489.638 501.277 510.477 281.109 499.605 281.109H477.482C476.173 281.109 474.876 281.367 473.667 281.868C472.457 282.369 471.358 283.104 470.432 284.03C469.506 284.955 468.772 286.055 468.271 287.264C467.77 288.474 467.512 289.77 467.512 291.08C467.512 291.25 467.516 291.42 467.525 291.59Z" fill="#2F2E41"/>
<path d="M301.182 488.592C306.186 488.592 310.243 484.536 310.243 479.532C310.243 474.528 306.186 470.472 301.182 470.472C296.179 470.472 292.122 474.528 292.122 479.532C292.122 484.536 296.179 488.592 301.182 488.592Z" fill="#276EF1"/>
<path d="M482.389 497.653C487.393 497.653 491.45 493.597 491.45 488.593C491.45 483.589 487.393 479.532 482.389 479.532C477.386 479.532 473.329 483.589 473.329 488.593C473.329 493.597 477.386 497.653 482.389 497.653Z" fill="#276EF1"/>
<path d="M323.672 58.0693V126.928H339.619L359.914 105.183L357.196 126.928H427.685L423.336 105.183L432.034 126.928H443.269V58.0693H323.672Z" fill="#2F2E41"/>
<path d="M312.799 139.613C315.802 139.613 318.236 135.151 318.236 129.647C318.236 124.143 315.802 119.681 312.799 119.681C309.797 119.681 307.363 124.143 307.363 129.647C307.363 135.151 309.797 139.613 312.799 139.613Z" fill="#FFB8B8"/>
<path d="M452.33 139.613C455.332 139.613 457.766 135.151 457.766 129.647C457.766 124.143 455.332 119.681 452.33 119.681C449.327 119.681 446.894 124.143 446.894 129.647C446.894 135.151 449.327 139.613 452.33 139.613Z" fill="#FFB8B8"/>
<path d="M603.152 608.446V614.516C603.156 616.182 602.847 617.834 602.242 619.386C601.974 620.078 601.649 620.747 601.272 621.386C600.08 623.386 598.389 625.043 596.364 626.193C594.34 627.343 592.051 627.947 589.722 627.946H143.172C140.844 627.947 138.555 627.343 136.53 626.193C134.505 625.043 132.814 623.386 131.622 621.386C131.245 620.747 130.921 620.078 130.652 619.386C130.047 617.834 129.739 616.182 129.742 614.516V608.446C129.742 606.683 130.089 604.937 130.763 603.308C131.437 601.678 132.426 600.198 133.672 598.951C134.919 597.704 136.398 596.715 138.027 596.039C139.656 595.364 141.402 595.016 143.165 595.016H168.912V592.186C168.912 592.113 168.926 592.04 168.954 591.972C168.982 591.904 169.023 591.842 169.075 591.79C169.127 591.738 169.189 591.697 169.256 591.669C169.324 591.641 169.397 591.626 169.47 591.626H182.902C183.05 591.626 183.193 591.684 183.298 591.789C183.403 591.894 183.462 592.036 183.462 592.184V595.016H191.852V592.186C191.852 592.113 191.866 592.04 191.894 591.972C191.922 591.904 191.963 591.842 192.015 591.79C192.067 591.738 192.129 591.697 192.196 591.669C192.264 591.641 192.337 591.626 192.41 591.626H205.842C205.99 591.626 206.133 591.684 206.238 591.789C206.343 591.894 206.402 592.036 206.402 592.184V595.016H214.802V592.186C214.802 592.113 214.816 592.04 214.844 591.972C214.872 591.904 214.913 591.842 214.965 591.79C215.017 591.738 215.079 591.697 215.146 591.669C215.214 591.641 215.287 591.626 215.36 591.626H228.792C228.94 591.626 229.083 591.684 229.188 591.789C229.293 591.894 229.352 592.036 229.352 592.184V595.016H237.742V592.186C237.742 592.113 237.756 592.04 237.784 591.972C237.812 591.904 237.853 591.842 237.905 591.79C237.957 591.738 238.019 591.697 238.086 591.669C238.154 591.641 238.227 591.626 238.3 591.626H251.732C251.88 591.626 252.023 591.684 252.128 591.789C252.233 591.894 252.292 592.036 252.292 592.184V595.016H260.682V592.186C260.682 592.113 260.696 592.04 260.724 591.972C260.752 591.904 260.793 591.842 260.845 591.79C260.897 591.738 260.959 591.697 261.026 591.669C261.094 591.641 261.167 591.626 261.24 591.626H274.672C274.82 591.626 274.963 591.685 275.068 591.789C275.173 591.894 275.232 592.036 275.232 592.184V595.016H283.632V592.186C283.632 592.113 283.646 592.04 283.674 591.972C283.702 591.904 283.743 591.842 283.795 591.79C283.847 591.738 283.909 591.697 283.976 591.669C284.044 591.641 284.117 591.626 284.19 591.626H297.622C297.77 591.626 297.913 591.685 298.018 591.789C298.123 591.894 298.182 592.036 298.182 592.184V595.016H306.572V592.186C306.572 592.113 306.586 592.04 306.614 591.972C306.642 591.904 306.683 591.842 306.735 591.79C306.787 591.738 306.849 591.697 306.916 591.669C306.984 591.641 307.057 591.626 307.13 591.626H412.332C412.406 591.626 412.478 591.64 412.546 591.668C412.614 591.696 412.676 591.737 412.728 591.789C412.78 591.841 412.821 591.903 412.849 591.97C412.877 592.038 412.892 592.111 412.892 592.184V595.016H421.292V592.186C421.292 592.113 421.306 592.04 421.334 591.972C421.362 591.904 421.403 591.843 421.455 591.791C421.507 591.739 421.569 591.697 421.637 591.669C421.704 591.641 421.777 591.626 421.85 591.626H435.282C435.43 591.628 435.572 591.687 435.677 591.792C435.781 591.896 435.841 592.038 435.842 592.186V595.016H444.232V592.186C444.232 592.113 444.246 592.04 444.274 591.972C444.302 591.904 444.343 591.843 444.395 591.791C444.447 591.739 444.509 591.697 444.576 591.669C444.644 591.641 444.717 591.626 444.79 591.626H458.222C458.296 591.626 458.368 591.64 458.436 591.668C458.504 591.696 458.566 591.737 458.618 591.789C458.67 591.841 458.711 591.903 458.739 591.97C458.767 592.038 458.782 592.111 458.782 592.184V595.016H467.172V592.186C467.172 592.113 467.186 592.04 467.214 591.972C467.242 591.904 467.283 591.843 467.335 591.791C467.387 591.739 467.449 591.697 467.516 591.669C467.584 591.641 467.657 591.626 467.73 591.626H481.162C481.236 591.626 481.308 591.64 481.376 591.668C481.444 591.696 481.506 591.737 481.558 591.789C481.61 591.841 481.651 591.903 481.679 591.97C481.707 592.038 481.722 592.111 481.722 592.184V595.016H490.122V592.186C490.122 592.113 490.136 592.04 490.164 591.972C490.192 591.904 490.233 591.843 490.285 591.791C490.337 591.739 490.399 591.697 490.466 591.669C490.534 591.641 490.607 591.626 490.68 591.626H504.112C504.259 591.628 504.399 591.688 504.503 591.793C504.606 591.898 504.663 592.039 504.662 592.186V595.016H513.062V592.186C513.062 592.113 513.076 592.04 513.104 591.972C513.132 591.904 513.173 591.843 513.225 591.791C513.277 591.739 513.339 591.697 513.406 591.669C513.474 591.641 513.547 591.626 513.62 591.626H527.052C527.126 591.626 527.198 591.64 527.266 591.668C527.334 591.696 527.396 591.737 527.448 591.789C527.5 591.841 527.541 591.903 527.569 591.97C527.597 592.038 527.612 592.111 527.612 592.184V595.016H536.002V592.186C536.002 592.113 536.016 592.04 536.044 591.972C536.072 591.904 536.113 591.843 536.165 591.791C536.217 591.739 536.279 591.697 536.346 591.669C536.414 591.641 536.487 591.626 536.56 591.626H549.992C550.066 591.626 550.138 591.64 550.206 591.668C550.274 591.696 550.336 591.737 550.388 591.789C550.44 591.841 550.481 591.903 550.509 591.97C550.537 592.038 550.552 592.111 550.552 592.184V595.016H589.722C593.283 595.015 596.698 596.429 599.217 598.946C601.736 601.463 603.151 604.878 603.152 608.439L603.152 608.446Z" fill="#2F2E41"/>
<path d="M971.052 626.382H0V628.382H971.052V626.382Z" fill="#3F3D56"/>
<path d="M567.194 352.812H158.15C156.672 352.812 155.208 353.103 153.842 353.669C152.476 354.234 151.235 355.064 150.189 356.109C149.144 357.155 148.314 358.396 147.749 359.762C147.183 361.128 146.892 362.592 146.892 364.07V591.982C146.892 594.968 148.078 597.831 150.189 599.943C152.301 602.054 155.164 603.24 158.15 603.24H567.194C570.18 603.24 573.043 602.054 575.155 599.943C577.266 597.831 578.452 594.968 578.452 591.982V364.07C578.452 361.084 577.266 358.22 575.155 356.109C573.043 353.998 570.18 352.812 567.194 352.812Z" fill="#3F3D56"/>
<path d="M366 512C378.703 512 389 501.703 389 489C389 476.297 378.703 466 366 466C353.297 466 343 476.297 343 489C343 501.703 353.297 512 366 512Z" fill="#276EF1"/>
<path d="M366.384 501.365C363.916 501.365 361.762 500.861 359.922 499.854C358.082 498.846 356.662 497.43 355.661 495.604C354.668 493.772 354.172 491.669 354.172 489.296C354.172 486.748 354.701 484.524 355.76 482.626C356.826 480.727 358.29 479.271 360.152 478.256C362.006 477.241 364.095 476.733 366.417 476.733C368.863 476.733 370.958 477.219 372.703 478.19C374.448 479.154 375.77 480.439 376.668 482.045C377.559 483.652 378.004 485.375 378.004 487.215C378.004 489.018 377.734 490.511 377.194 491.694C376.653 492.885 375.945 493.761 375.069 494.323C374.193 494.878 373.244 495.155 372.221 495.155C371.214 495.155 370.418 494.936 369.834 494.498C369.242 494.067 368.899 493.461 368.804 492.68H368.749C367.72 494.33 366.303 495.155 364.5 495.155C363.215 495.155 362.178 494.71 361.389 493.819C360.601 492.928 360.207 491.705 360.207 490.15C360.207 488.836 360.459 487.613 360.962 486.481C361.466 485.357 362.171 484.455 363.076 483.776C363.989 483.104 365.033 482.768 366.209 482.768C367.085 482.768 367.844 482.969 368.487 483.371C369.136 483.765 369.564 484.287 369.768 484.937H369.834L370.14 483.086H372.331L371.028 490.511C370.947 491.081 370.907 491.442 370.907 491.596C370.907 492.224 371.046 492.676 371.323 492.954C371.601 493.224 372.032 493.359 372.616 493.359C373.112 493.359 373.612 493.158 374.116 492.757C374.62 492.348 375.043 491.683 375.387 490.763C375.723 489.836 375.89 488.653 375.89 487.215C375.89 485.696 375.536 484.291 374.828 482.998C374.113 481.706 373.043 480.665 371.619 479.877C370.195 479.088 368.461 478.694 366.417 478.694C364.496 478.694 362.777 479.117 361.258 479.964C359.739 480.811 358.549 482.038 357.688 483.644C356.819 485.243 356.384 487.127 356.384 489.296C356.384 491.326 356.786 493.1 357.589 494.619C358.385 496.137 359.539 497.309 361.05 498.134C362.554 498.959 364.332 499.372 366.384 499.372C367.924 499.372 369.253 499.164 370.37 498.748C371.488 498.331 372.342 497.744 372.933 496.984H375.836C375.04 498.328 373.824 499.394 372.189 500.182C370.56 500.971 368.625 501.365 366.384 501.365ZM364.993 493.359C365.884 493.359 366.65 493.089 367.293 492.549C367.943 492.008 368.432 491.304 368.76 490.435C369.096 489.559 369.264 488.646 369.264 487.697C369.264 486.689 369.02 485.919 368.53 485.386C368.049 484.86 367.391 484.597 366.559 484.597C365.705 484.597 364.964 484.86 364.336 485.386C363.708 485.919 363.233 486.609 362.912 487.456C362.591 488.303 362.43 489.179 362.43 490.084C362.43 491.128 362.667 491.935 363.142 492.505C363.616 493.074 364.233 493.359 364.993 493.359Z" fill="white"/>
<path d="M517.763 267.219L643.969 140.016H703.552V138.016H643.134L642.841 138.313L516.341 265.813L517.763 267.219Z" fill="#AAAADD"/>
<path d="M922.552 87.792H776.328V100.822H922.552V87.792Z" fill="#276EF1"/>
<path d="M758.507 109.061H727.552V78.1055H758.507V109.061ZM729.552 107.061H756.507V80.1055H729.552L729.552 107.061Z" fill="#AAAADD"/>
<path d="M922.552 131.225H776.328V144.254H922.552V131.225Z" fill="#276EF1"/>
<path d="M758.507 152.494H727.552V121.539H758.507V152.494ZM729.552 150.494H756.507V123.539H729.552L729.552 150.494Z" fill="#AAAADD"/>
<path d="M922.552 174.658H776.328V187.688H922.552V174.658Z" fill="#276EF1"/>
<path d="M758.507 195.927H727.552V164.972H758.507V195.927ZM729.552 193.927H756.507V166.972H729.552L729.552 193.927Z" fill="#AAAADD"/>
</g>
<defs>
<clipPath id="clip0_622_468">
<rect width="971.052" height="628.381" fill="white"/>
</clipPath>
</defs>
</svg>
