<svg width="900" height="682" viewBox="0 0 900 682" fill="none" xmlns="http://www.w3.org/2000/svg">
<g clip-path="url(#clip0_622_658)">
<path d="M743 635.613C743 661.293 604.21 682.113 433 682.113C261.79 682.113 123 661.293 123 635.613C123 617.433 192.57 601.683 293.96 594.043C335.77 590.883 383.01 589.113 433 589.113C453.55 589.113 473.63 589.413 493.05 589.983C635.52 594.183 743 613.013 743 635.613Z" fill="#3F3D56"/>
<path opacity="0.1" d="M393 645.113C458.722 645.113 512 638.621 512 630.613C512 622.605 458.722 616.113 393 616.113C327.278 616.113 274 622.605 274 630.613C274 638.621 327.278 645.113 393 645.113Z" fill="black"/>
<path d="M392.5 641.113C454.632 641.113 505 587.387 505 521.113C505 454.839 454.632 401.113 392.5 401.113C330.368 401.113 280 454.839 280 521.113C280 587.387 330.368 641.113 392.5 641.113Z" fill="#3F3D56"/>
<path d="M428 592.113H358V656.113H428V592.113Z" fill="#276EF1"/>
<path d="M519.5 607.614L515.5 629.614L541.5 633.614L558.5 623.614L557.5 607.614H519.5Z" fill="#575A89"/>
<path d="M388.5 194.614C388.5 194.614 386.5 217.614 381.5 218.614C376.5 219.614 392.5 259.614 392.5 259.614H416.5L435.5 254.614L426.5 232.614C426.5 232.614 414.5 216.614 423.5 203.614C432.5 190.614 388.5 194.614 388.5 194.614Z" fill="#A0616A"/>
<path opacity="0.1" d="M388.5 194.614C388.5 194.614 386.5 217.614 381.5 218.614C376.5 219.614 392.5 259.614 392.5 259.614H416.5L435.5 254.614L426.5 232.614C426.5 232.614 414.5 216.614 423.5 203.614C432.5 190.614 388.5 194.614 388.5 194.614Z" fill="black"/>
<path d="M338.5 370.613C338.5 370.613 312.5 420.613 333.5 430.613C354.5 440.613 359.5 439.613 359.5 442.613C359.5 445.613 355.5 444.613 357.5 449.613C359.5 454.613 353.5 474.613 359.5 486.613C365.5 498.613 363.5 507.613 363.5 507.613C363.5 507.613 363.5 508.613 365.5 512.613C367.5 516.613 368.5 519.613 367.5 521.613C366.5 523.613 360.5 536.613 366.5 539.613C372.5 542.613 403.5 544.613 406.5 539.613C409.5 534.613 403.5 531.613 406.5 528.613C409.5 525.613 411.5 524.613 409.5 522.613C407.5 520.613 405.5 495.613 405.5 495.613C405.5 495.613 410.5 466.613 408.5 462.613C406.5 458.613 403.5 454.613 405.5 451.613C407.5 448.613 409.5 449.613 410.5 445.613C411.5 441.613 413.5 432.613 413.5 432.613L424.5 431.613L450.5 436.613C450.5 436.613 479.5 468.613 511.5 478.613C511.5 478.613 520.5 487.613 523.5 487.613C526.5 487.613 526.5 487.613 525.5 489.613C524.5 491.613 521.5 491.613 523.5 493.613C525.5 495.613 528.5 492.613 526.5 495.613C524.5 498.613 522.5 498.613 524.5 500.613C526.5 502.613 523.5 513.613 523.5 514.613C523.5 515.613 514.5 609.613 517.5 611.613C520.5 613.613 562.5 619.613 565.5 611.613C568.5 603.613 563.5 593.613 563.5 593.613C563.5 593.613 578.5 473.613 574.5 465.613C570.5 457.613 556.5 421.613 481.5 398.613C481.5 398.613 460.5 394.613 460.5 391.613C460.5 388.613 458.5 369.613 454.5 368.613C450.5 367.613 427.5 366.613 427.5 366.613L398.5 375.613L358.5 368.613L338.5 370.613Z" fill="#2F2E41"/>
<path d="M373.5 538.613L368.5 556.613C368.5 556.613 364.5 585.613 369.5 592.613C373.428 598.112 380.44 604.844 393.445 606.026C397.089 606.36 400.739 605.44 403.79 603.419C406.841 601.397 409.11 598.394 410.223 594.908C410.372 594.49 410.466 594.055 410.5 593.613C410.5 591.613 407.5 567.613 407.5 567.613L402.5 542.613L401.5 535.613L373.5 538.613Z" fill="#2F2E41"/>
<path d="M519.5 624.613C519.5 624.613 514.5 619.613 513.5 624.613C512.5 629.613 508.5 650.613 515.5 651.613C522.5 652.613 589.5 662.613 596.5 658.613C603.5 654.613 616.5 648.613 608.5 645.613C600.5 642.613 577.5 633.613 577.5 633.613C577.5 633.613 564.5 616.613 562.5 615.613C560.5 614.613 549.5 616.613 544.5 620.613C539.5 624.613 519.5 624.613 519.5 624.613Z" fill="#2F2E41"/>
<path d="M412.5 215.613C429.621 215.613 443.5 201.734 443.5 184.613C443.5 167.492 429.621 153.613 412.5 153.613C395.379 153.613 381.5 167.492 381.5 184.613C381.5 201.734 395.379 215.613 412.5 215.613Z" fill="#A0616A"/>
<path d="M409.5 254.613L397.5 241.613L384.198 215.613C384.198 215.613 374.5 212.613 372.5 217.613C370.5 222.613 334.5 238.613 334.5 238.613C334.5 238.613 343.5 322.613 339.5 330.613C335.5 338.613 328.5 370.613 334.5 373.613C340.5 376.613 368.5 373.613 377.5 377.613C386.5 381.613 412.5 381.613 419.5 376.613C426.5 371.613 428.5 367.613 435.5 370.613C441.459 373.167 455.39 285.852 459.401 259.832C459.739 257.647 459.459 255.411 458.591 253.376C457.724 251.342 456.304 249.592 454.493 248.323C445.521 242.029 429.361 231.183 426.5 232.613C422.5 234.613 409.5 254.613 409.5 254.613Z" fill="#575A89"/>
<path d="M452.5 250.613C454.848 251.2 456.96 252.492 458.553 254.314C460.146 256.137 461.143 258.403 461.41 260.809L469.5 333.613C469.5 333.613 449.5 376.613 439.5 347.613C429.5 318.613 452.5 250.613 452.5 250.613Z" fill="#575A89"/>
<path d="M450.5 340.613L472.5 334.613C472.5 334.613 476.5 362.613 480.5 362.613C484.5 362.613 466.5 378.613 457.5 376.613C448.5 374.613 435.5 367.613 434.5 362.613C433.5 357.613 443.5 336.613 443.5 336.613L450.5 340.613Z" fill="#575A89"/>
<path d="M389.099 197.986C391.206 193.338 390.84 187.916 392.583 183.12C393.516 180.551 395.031 178.233 397.008 176.347C398.985 174.46 401.372 173.056 403.981 172.245C406.591 171.434 409.353 171.236 412.051 171.669C414.749 172.102 417.311 173.152 419.536 174.739C421.778 176.337 424.026 178.583 426.762 178.278C429.709 177.949 432.337 174.662 435.046 175.867C438.049 177.202 437.238 182.583 440.28 183.826C441.881 184.481 443.774 183.473 444.697 182.011C445.505 180.474 445.945 178.77 445.983 177.034C446.403 172.769 446.782 168.255 444.932 164.39C444.154 163.079 443.476 161.712 442.904 160.3C442.58 158.981 442.451 157.622 442.518 156.265C442.502 151.252 442.136 146.023 439.613 141.691C436.813 136.884 431.638 133.81 426.239 132.469C420.841 131.128 415.185 131.333 409.641 131.802C400.478 132.578 390.922 134.241 383.703 139.937C382.722 140.654 381.877 141.542 381.21 142.557C380.576 143.763 380.128 145.058 379.881 146.398C378.321 152.755 375.98 158.893 372.914 164.676C371.439 167.127 370.233 169.73 369.318 172.441C368.553 175.195 368.604 178.334 370.207 180.702C371.512 182.629 373.598 183.657 375.237 185.232C376.86 186.794 377.62 189.797 379.419 190.979C380.989 192.011 382.87 191.283 384.472 192.377C386.528 193.781 386.677 196.861 389.099 197.986Z" fill="#2F2E41"/>
<path d="M414.5 269.613L417.5 263.613C417.5 263.613 461.5 276.613 470.5 288.613C470.5 288.613 492.5 274.613 504.5 276.613L516.5 278.613L479.5 311.613L432.5 307.613L414.5 269.613Z" fill="#CCCCCC"/>
<path d="M412.5 263.613L371.5 320.613L430.5 349.613C430.5 349.613 436.016 352.613 440.258 349.613L479.5 331.613L516.5 278.613L479.5 297.613C479.5 297.613 475.5 289.613 467.5 293.613L412.5 263.613Z" fill="#276EF1"/>
<path d="M475.5 364.614L483.5 343.614C483.5 343.614 501.5 320.614 491.5 309.614C481.5 298.614 470.5 341.614 470.5 341.614L475.5 364.614Z" fill="#A0616A"/>
<path d="M383.197 361.262L400.654 347.11C400.654 347.11 427.764 336.245 424.632 321.713C421.501 307.18 390.411 338.858 390.411 338.858L383.197 361.262Z" fill="#A0616A"/>
<path opacity="0.1" d="M340 260.114H339C339 260.114 323.5 241.614 320.5 266.614C317.5 291.614 307.5 374.614 333.5 377.614C359.5 380.614 378 365.114 378 365.114C378 365.114 397 336.114 390 336.114C386.613 336.114 377.401 334.593 369 335.114C360.037 335.67 351.983 338.195 352.5 335.614C353.5 330.614 368 267.114 340 260.114Z" fill="black"/>
<path d="M338.5 240.613L334.5 238.613C334.5 238.613 318.5 241.613 315.5 266.613C312.5 291.613 302.5 374.613 328.5 377.613C354.5 380.613 389.5 373.613 389.5 373.613C389.5 373.613 396.5 335.613 389.5 335.613C382.5 335.613 346.5 340.613 347.5 335.613C348.5 330.613 366.5 247.613 338.5 240.613Z" fill="#575A89"/>
<path d="M461 353.114L472.027 336.213L479 364.114L461 372.114V353.114Z" fill="#575A89"/>
<path d="M307.622 87.0842H239.401C238.93 87.0854 238.463 86.9937 238.028 86.8143C237.593 86.6349 237.197 86.3714 236.863 86.0389C236.53 85.7063 236.265 85.3112 236.085 84.8762C235.904 84.4413 235.812 83.975 235.812 83.504C235.812 83.0331 235.904 82.5668 236.085 82.1318C236.265 81.6968 236.53 81.3018 236.863 80.9692C237.197 80.6366 237.593 80.3731 238.028 80.1937C238.463 80.0144 238.93 79.9226 239.401 79.9238H307.622C308.571 79.9238 309.482 80.301 310.153 80.9724C310.825 81.6439 311.202 82.5545 311.202 83.504C311.202 84.4535 310.825 85.3642 310.153 86.0356C309.482 86.707 308.571 87.0842 307.622 87.0842V87.0842Z" fill="#3F3D56"/>
<path d="M313.233 108C312.565 108 311.913 107.792 311.369 107.404C310.825 107.015 310.416 106.467 310.199 105.835C309.982 105.203 309.968 104.519 310.159 103.878C310.35 103.238 310.736 102.673 311.264 102.263L328.732 88.6843C329.434 88.1386 330.015 87.4532 330.438 86.6713C330.861 85.8894 331.118 85.0282 331.191 84.1421C331.264 83.2561 331.152 82.3645 330.862 81.524C330.572 80.6834 330.111 79.9121 329.508 79.259L314.843 63.3821C314.557 63.0729 314.335 62.7105 314.189 62.3155C314.043 61.9204 313.977 61.5006 313.993 61.0799C314.01 60.6592 314.109 60.2458 314.286 59.8635C314.462 59.4812 314.712 59.1374 315.021 58.8516C315.33 58.5658 315.693 58.3438 316.088 58.1981C316.483 58.0524 316.903 57.9859 317.323 58.0025C317.744 58.0191 318.157 58.1184 318.54 58.2947C318.922 58.471 319.266 58.7209 319.552 59.0301L341.331 82.6063C341.632 82.9324 341.862 83.3176 342.007 83.7374C342.152 84.1571 342.208 84.6024 342.171 85.0449C342.135 85.4875 342.007 85.9177 341.796 86.3082C341.585 86.6988 341.294 87.0411 340.944 87.3137L315.2 107.325C314.638 107.763 313.945 108 313.233 108Z" fill="#3F3D56"/>
<path d="M235.949 108C236.617 108 237.269 107.792 237.813 107.404C238.357 107.015 238.766 106.467 238.983 105.835C239.2 105.203 239.214 104.519 239.023 103.878C238.832 103.238 238.446 102.673 237.918 102.263L220.45 88.6843C219.748 88.1386 219.167 87.4532 218.744 86.6713C218.321 85.8894 218.064 85.0282 217.992 84.1421C217.919 83.2561 218.03 82.3645 218.32 81.524C218.61 80.6834 219.071 79.9121 219.674 79.259L234.34 63.3821C234.625 63.0729 234.847 62.7105 234.993 62.3155C235.139 61.9204 235.205 61.5006 235.189 61.0799C235.172 60.6592 235.073 60.2458 234.897 59.8635C234.72 59.4812 234.47 59.1374 234.161 58.8516C233.852 58.5658 233.49 58.3438 233.095 58.1981C232.699 58.0524 232.28 57.9859 231.859 58.0025C231.438 58.0191 231.025 58.1184 230.642 58.2947C230.26 58.471 229.916 58.7209 229.631 59.0301L207.851 82.6063C207.55 82.9324 207.32 83.3176 207.175 83.7374C207.03 84.1571 206.974 84.6024 207.011 85.0449C207.047 85.4875 207.175 85.9177 207.386 86.3082C207.597 86.6988 207.888 87.0411 208.238 87.3137L233.983 107.325C234.545 107.763 235.237 108 235.949 108V108Z" fill="#3F3D56"/>
<path d="M266.473 286.113H202.473V350.113H266.473V286.113Z" fill="#3F3D56"/>
<path d="M552.89 32.2893H484.669C483.719 32.2893 482.809 31.9121 482.138 31.2407C481.466 30.5693 481.089 29.6586 481.089 28.7091C481.089 27.7596 481.466 26.8489 482.138 26.1775C482.809 25.5061 483.719 25.1289 484.669 25.1289H552.89C553.839 25.1289 554.75 25.5061 555.421 26.1775C556.093 26.8489 556.47 27.7596 556.47 28.7091C556.47 29.6586 556.093 30.5693 555.421 31.2407C554.75 31.9121 553.839 32.2893 552.89 32.2893V32.2893Z" fill="#3F3D56"/>
<path d="M564.91 50C564.242 50.0003 563.59 49.7919 563.046 49.4037C562.502 49.0155 562.093 48.4669 561.876 47.8348C561.659 47.2027 561.645 46.5186 561.836 45.8781C562.027 45.2376 562.413 44.6728 562.941 44.2626L580.409 30.6842C581.111 30.1386 581.692 29.4532 582.115 28.6713C582.538 27.8894 582.794 27.0281 582.867 26.1421C582.94 25.256 582.829 24.3645 582.539 23.5239C582.249 22.6834 581.788 21.9121 581.185 21.2591L566.519 5.38205C566.234 5.07285 566.011 4.71041 565.866 4.31539C565.72 3.92037 565.654 3.50055 565.67 3.07985C565.687 2.65915 565.786 2.24585 565.962 1.86352C566.139 1.48119 566.389 1.13728 566.698 0.851521C567.007 0.565761 567.369 0.343696 567.764 0.198012C568.159 0.0523275 568.579 -0.0140862 569 0.00248571C569.421 0.0190576 569.834 0.118314 570.216 0.294619C570.599 0.470924 570.943 0.72081 571.228 1.03001L593.007 24.6063C593.309 24.9325 593.539 25.3176 593.684 25.7374C593.829 26.1572 593.885 26.6024 593.848 27.0449C593.812 27.4875 593.684 27.9176 593.473 28.3082C593.261 28.6987 592.971 29.0412 592.621 29.3138L566.876 49.3254C566.314 49.763 565.622 50.0004 564.91 50Z" fill="#3F3D56"/>
<path d="M445.949 50C446.617 50.0003 447.269 49.7919 447.813 49.4037C448.357 49.0155 448.766 48.4669 448.983 47.8348C449.2 47.2027 449.214 46.5186 449.023 45.8781C448.832 45.2376 448.446 44.6728 447.918 44.2626L430.45 30.6842C429.748 30.1386 429.167 29.4532 428.744 28.6713C428.321 27.8894 428.065 27.0281 427.992 26.1421C427.919 25.256 428.03 24.3645 428.32 23.5239C428.61 22.6834 429.071 21.9121 429.674 21.2591L444.34 5.38205C444.917 4.7576 445.222 3.92949 445.189 3.07985C445.155 2.23021 444.786 1.42864 444.161 0.851523C443.537 0.274403 442.709 -0.030981 441.859 0.0024874C441.009 0.0359558 440.208 0.405557 439.631 1.03001L417.851 24.6063C417.55 24.9325 417.32 25.3176 417.175 25.7374C417.03 26.1572 416.974 26.6024 417.011 27.0449C417.047 27.4875 417.175 27.9176 417.386 28.3082C417.597 28.6987 417.888 29.0412 418.238 29.3138L443.983 49.3254C444.545 49.763 445.237 50.0004 445.949 50V50Z" fill="#3F3D56"/>
<path d="M452.038 39.9698L466.378 7.16552C466.761 6.29979 467.472 5.62101 468.354 5.27777C469.237 4.93453 470.219 4.95473 471.086 5.33394C471.954 5.71315 472.636 6.42052 472.983 7.30126C473.33 8.182 473.314 9.16441 472.939 10.0336L458.599 42.8378C458.412 43.2708 458.141 43.6627 457.803 43.9909C457.464 44.319 457.064 44.577 456.625 44.75C456.186 44.9231 455.718 45.0077 455.246 44.9991C454.775 44.9905 454.31 44.8889 453.878 44.7C453.445 44.5111 453.055 44.2387 452.728 43.8984C452.402 43.5581 452.146 43.1567 451.975 42.7172C451.804 42.2776 451.722 41.8086 451.732 41.3371C451.743 40.8657 451.847 40.401 452.038 39.9698V39.9698Z" fill="#3F3D56"/>
<path d="M652.411 194.4C642.144 194.4 633.324 192.347 625.951 188.24C618.671 184.04 613.071 178.16 609.151 170.6C605.231 162.947 603.271 153.94 603.271 143.58C603.271 133.22 605.231 124.26 609.151 116.7C613.071 109.14 618.671 103.307 625.951 99.2C633.324 95 642.144 92.9 652.411 92.9C659.038 92.9 665.291 93.9267 671.171 95.98C677.144 98.0333 682.044 100.973 685.871 104.8L679.991 119.08C675.791 115.533 671.498 112.967 667.111 111.38C662.724 109.7 658.011 108.86 652.971 108.86C642.984 108.86 635.378 111.893 630.151 117.96C624.924 123.933 622.311 132.473 622.311 143.58C622.311 154.687 624.924 163.273 630.151 169.34C635.378 175.407 642.984 178.44 652.971 178.44C658.011 178.44 662.724 177.647 667.111 176.06C671.498 174.38 675.791 171.767 679.991 168.22L685.871 182.5C682.044 186.233 677.144 189.173 671.171 191.32C665.291 193.373 659.038 194.4 652.411 194.4ZM733.48 194.4C725.733 194.4 718.546 193.42 711.92 191.46C705.293 189.407 699.693 186.653 695.12 183.2L700.58 169.06C705.153 172.327 710.146 174.847 715.56 176.62C721.066 178.393 727.04 179.28 733.48 179.28C740.853 179.28 746.22 178.067 749.58 175.64C752.94 173.12 754.62 169.9 754.62 165.98C754.62 162.713 753.406 160.147 750.98 158.28C748.646 156.413 744.586 154.873 738.8 153.66L723.4 150.44C705.853 146.707 697.08 137.7 697.08 123.42C697.08 117.26 698.713 111.893 701.98 107.32C705.246 102.747 709.773 99.2 715.56 96.68C721.346 94.16 728.02 92.9 735.58 92.9C742.3 92.9 748.6 93.9267 754.48 95.98C760.36 97.94 765.26 100.74 769.18 104.38L763.72 117.82C755.973 111.287 746.546 108.02 735.44 108.02C729 108.02 723.96 109.373 720.32 112.08C716.68 114.787 714.86 118.333 714.86 122.72C714.86 126.08 715.98 128.787 718.22 130.84C720.46 132.8 724.286 134.34 729.7 135.46L744.96 138.68C754.2 140.64 761.06 143.72 765.54 147.92C770.113 152.12 772.4 157.72 772.4 164.72C772.4 170.6 770.813 175.78 767.64 180.26C764.466 184.74 759.94 188.24 754.06 190.76C748.273 193.187 741.413 194.4 733.48 194.4Z" fill="#276EF1"/>
</g>
<defs>
<clipPath id="clip0_622_658">
<rect width="900" height="682" fill="white"/>
</clipPath>
</defs>
</svg>
