<svg width="996" height="675" viewBox="0 0 996 675" fill="none" xmlns="http://www.w3.org/2000/svg">
<g clip-path="url(#clip0_620_245)">
<path d="M996 662.133H32.4902V664.374H996V662.133Z" fill="#2F2E41"/>
<path d="M859.363 624.953L863.278 636.699C863.278 636.699 863.278 648.445 867.194 654.318C871.109 660.191 875.024 672.916 859.363 673.894C843.702 674.873 836.85 669 836.85 669C836.85 669 839.787 661.17 836.85 658.233C833.914 655.297 836.85 649.424 836.85 649.424L839.786 625.932L859.363 624.953Z" fill="#222222"/>
<path d="M783.093 624.953L779.178 636.699C779.178 636.699 779.178 648.445 775.263 654.318C771.347 660.191 767.432 672.916 783.093 673.894C798.755 674.873 805.606 669 805.606 669C805.606 669 802.67 661.17 805.606 658.233C808.543 655.297 805.606 649.424 805.606 649.424L802.67 625.932L783.093 624.953Z" fill="#222222"/>
<path d="M798.403 383.64L782.815 408.135C782.815 408.135 767.783 641.4 770.01 639.73C772.237 638.06 779.474 637.503 782.258 633.049C785.042 628.596 802.3 633.049 802.3 633.049L812.321 622.472V614.121C812.321 612.451 832.363 484.962 832.363 484.962V517.252C832.363 517.252 826.239 635.833 836.26 634.72C846.281 633.606 866.879 626.926 866.879 626.926C866.879 626.926 896.385 405.352 887.478 397.001C878.57 388.65 874.673 369.722 874.673 369.722L798.403 383.64Z" fill="#2F2E41"/>
<path d="M138.925 664.374C215.651 664.374 277.849 602.175 277.849 525.449C277.849 448.723 215.651 386.524 138.925 386.524C62.1987 386.524 0 448.723 0 525.449C0 602.175 62.1987 664.374 138.925 664.374Z" fill="#222222"/>
<path d="M306.979 587.069C239.068 587.069 173.258 563.522 120.762 520.44C68.2659 477.358 32.3321 417.406 19.0832 350.8C5.83425 284.194 16.09 215.055 48.1028 155.162C80.1157 95.2702 131.905 48.3309 194.647 22.3424C257.388 -3.64616 327.2 -7.07589 392.187 12.6375C457.173 32.351 513.314 73.9879 551.044 130.454C588.773 186.92 605.756 254.721 599.1 322.305C592.444 389.889 562.559 453.074 514.539 501.094C487.345 528.437 454.998 550.114 419.371 564.872C383.743 579.629 345.542 587.174 306.979 587.069V587.069ZM306.979 2.24026C146.36 2.24026 15.6855 132.914 15.6855 293.534C15.6855 454.154 146.36 584.828 306.979 584.828C467.599 584.828 598.273 454.154 598.273 293.534C598.273 132.914 467.599 2.24026 306.979 2.24026V2.24026Z" fill="#DDDDEE"/>
<path d="M459.908 386.443L459.875 386.46L315.201 467.019L156.779 387.808L154.049 386.443L162.271 222.003L305.334 120.05L306.913 121.037L454.975 213.781L459.908 386.443Z" fill="#276EF1"/>
<path opacity="0.3" d="M459.875 386.46L315.201 467.019L156.779 387.808L297.112 289.424L459.875 386.46Z" fill="black"/>
<path opacity="0.1" d="M459.908 386.443L297.112 289.424L306.913 121.037L454.975 213.781L459.908 386.443Z" fill="black"/>
<path d="M160.165 272.745L159.361 271.607L304.021 169.5L456.834 265.309L456.094 266.49L304.066 171.173L160.165 272.745Z" fill="#F2F2F2"/>
<path d="M157.361 328.61L156.579 327.458L300.505 229.743L300.882 229.957L456.963 318.417L456.275 319.629L300.571 231.382L157.361 328.61Z" fill="#F2F2F2"/>
<path d="M212.276 415.965L211.542 414.781L356.595 324.9V152.594H357.988V325.676L212.276 415.965Z" fill="#F2F2F2"/>
<path d="M269.209 444.428L268.469 443.248L408.138 355.645V184.879H409.531V356.416L269.209 444.428Z" fill="#F2F2F2"/>
<path d="M407.612 415.982L245.176 325.73L245.199 325.296L253.75 156.281L255.141 156.352L246.612 324.933L408.289 414.764L407.612 415.982Z" fill="#F2F2F2"/>
<path d="M356.507 444.455L195.895 360.288L195.92 359.841L205.388 190.742L206.779 190.82L197.337 359.471L357.154 443.221L356.507 444.455Z" fill="#F2F2F2"/>
<path d="M487.357 119.879C518.295 119.879 543.375 94.7987 543.375 63.8608C543.375 32.9229 518.295 7.84277 487.357 7.84277C456.419 7.84277 431.339 32.9229 431.339 63.8608C431.339 94.7987 456.419 119.879 487.357 119.879Z" fill="#DDDDEE"/>
<path d="M884.137 360.814L896.941 395.887C896.941 395.887 883.58 435.971 896.941 437.085C910.302 438.198 911.973 398.671 911.973 398.671L904.735 356.36L884.137 360.814Z" fill="#FFB9B9"/>
<path d="M890.261 246.131L899.726 255.595V300.689C899.726 300.689 905.293 309.04 904.179 311.267C903.066 313.494 901.952 313.494 903.066 315.164C904.179 316.834 905.293 317.948 904.179 319.061C903.637 319.784 903.344 320.663 903.344 321.566C903.344 322.47 903.637 323.349 904.179 324.071C905.293 325.185 907.52 326.855 905.849 328.525C904.179 330.195 901.952 329.082 904.179 335.206C906.406 341.33 910.303 343 909.19 345.227C908.076 347.454 908.076 353.021 908.076 353.021L884.137 356.361L879.127 293.452L890.261 246.131Z" fill="#406CBF"/>
<path d="M909.19 352.464L881.354 353.577L882.467 365.268L906.964 360.814L909.19 352.464Z" fill="#777777"/>
<path d="M832.641 187.953L829.3 221.357L863.26 226.367L865.765 207.16L868.271 187.953H832.641Z" fill="#FFB9B9"/>
<path opacity="0.1" d="M832.641 187.953L829.3 221.357L863.26 226.367L865.765 207.16L868.271 187.953H832.641Z" fill="black"/>
<path d="M758.875 346.897L777.803 387.537C777.803 387.537 781.144 406.465 786.154 407.022C791.165 407.579 796.175 387.537 796.175 387.537L789.495 376.959L781.7 346.896L758.875 346.897Z" fill="#FFB9B9"/>
<path d="M851.291 198.809C866.049 198.809 878.013 186.845 878.013 172.087C878.013 157.328 866.049 145.364 851.291 145.364C836.532 145.364 824.568 157.328 824.568 172.087C824.568 186.845 836.532 198.809 851.291 198.809Z" fill="#FFB9B9"/>
<path d="M791.722 226.646L787.824 224.419C787.824 224.419 770.566 236.11 764.999 262.276C759.432 288.442 755.535 295.122 755.535 295.122C755.535 295.122 749.968 296.236 753.865 300.133C757.762 304.03 757.762 303.473 754.421 305.7C751.081 307.927 748.854 303.473 751.081 307.927C753.308 312.38 756.092 311.267 753.865 314.051C751.638 316.834 747.741 316.834 749.968 319.061C752.195 321.288 747.741 326.298 750.524 328.525C753.308 330.752 754.421 331.309 754.421 335.206C754.404 337.48 754.781 339.741 755.535 341.887H784.484C784.484 341.887 778.917 331.309 780.587 329.082C782.257 326.855 782.814 324.628 781.701 323.515C780.587 322.401 777.247 324.628 780.587 321.845C783.927 319.061 785.041 320.731 783.928 317.391C782.814 314.051 780.587 315.721 782.814 314.051C785.041 312.38 786.711 312.937 785.598 311.267C784.484 309.597 782.257 309.597 784.484 308.483C786.711 307.37 788.381 308.483 787.825 305.7C787.268 302.916 786.711 304.03 787.825 302.916C788.938 301.803 800.629 263.946 800.629 262.833C800.629 261.719 791.722 226.646 791.722 226.646Z" fill="#406CBF"/>
<path d="M786.155 339.659L751.081 341.886L759.989 350.237L784.485 350.794L786.155 339.659Z" fill="#777777"/>
<path d="M796.176 381.413L788.938 394.774C788.938 394.774 810.651 397.558 818.445 400.341C826.239 403.125 846.281 407.022 846.281 407.022L851.291 387.537L796.176 381.413Z" fill="#777777"/>
<path d="M859.641 387.537L865.765 405.909L890.261 400.898L887.477 383.64L859.641 387.537Z" fill="#777777"/>
<path d="M869.663 207.717C869.663 207.717 867.993 206.603 864.096 208.83C860.199 211.057 847.394 212.17 841.27 205.49C835.146 198.809 830.692 193.242 829.022 194.355C827.352 195.469 826.239 208.273 826.239 208.273L820.672 212.727L787.825 224.418L790.609 299.575L795.619 316.834C795.619 316.834 791.722 330.195 796.733 337.989C801.743 345.783 793.949 348.566 793.949 348.566C793.949 348.566 792.279 350.793 793.392 356.361C794.506 361.928 792.279 382.526 792.279 382.526C792.279 382.526 839.6 403.682 889.148 385.31L883.581 364.155L880.797 316.834C880.797 316.834 883.581 309.039 883.024 305.699C882.467 302.359 899.726 255.595 899.726 255.595C899.726 255.595 896.942 232.212 882.467 227.202C867.993 222.191 865.766 217.181 865.766 217.181C865.766 217.181 872.446 209.944 869.663 207.717Z" fill="#406CBF"/>
<path d="M824.383 175.51C824.383 175.51 821.608 171.348 822.675 166.865C823.313 164.32 823.565 161.694 823.422 159.074C824.616 155.19 826.115 151.408 827.905 147.76C830.146 143.705 829.079 141.997 836.123 140.716C843.167 139.435 840.285 130.257 858.857 140.183C859.483 141.057 860.355 141.727 861.362 142.107C862.368 142.487 863.465 142.56 864.513 142.317C868.356 141.57 869.743 146.907 869.743 146.907C869.743 146.907 872.305 145.412 873.265 147.547C874.226 149.682 881.075 146.266 881.075 160.674C881.075 175.083 873.281 187.954 873.281 187.954C873.281 187.954 873.852 163.717 861.151 161.262C848.45 158.807 834.789 151.656 831.48 160.835C829.694 165.986 827.312 170.912 824.383 175.51Z" fill="#2F2E41"/>
<path d="M873.56 181.272C874.944 181.272 876.065 179.777 876.065 177.932C876.065 176.087 874.944 174.592 873.56 174.592C872.176 174.592 871.055 176.087 871.055 177.932C871.055 179.777 872.176 181.272 873.56 181.272Z" fill="#FFB9B9"/>
</g>
<defs>
<clipPath id="clip0_620_245">
<rect width="996" height="674.005" fill="white"/>
</clipPath>
</defs>
</svg>
