<svg width="888" height="711" viewBox="0 0 888 711" fill="none" xmlns="http://www.w3.org/2000/svg">
<g clip-path="url(#clip0_621_341)">
<path d="M444.935 604.807C384.768 604.807 326.463 583.945 279.953 545.775C233.443 507.605 201.607 454.49 189.869 395.479C178.132 336.468 187.218 275.212 215.581 222.15C243.943 169.087 289.827 127.501 345.414 104.476C401.002 81.4509 462.853 78.4124 520.429 95.8781C578.005 113.344 627.744 150.233 661.171 200.26C694.598 250.287 709.645 310.357 703.748 370.234C697.85 430.112 671.374 486.092 628.829 528.636C604.736 552.861 576.077 572.067 544.512 585.141C512.947 598.216 479.101 604.9 444.935 604.807V604.807ZM444.935 86.6783C302.639 86.6783 186.871 202.446 186.871 344.743C186.871 487.041 302.639 602.807 444.935 602.807C587.232 602.807 703 487.041 703 344.743C703 202.446 587.232 86.6783 444.935 86.6783V86.6783Z" fill="#444444"/>
<path d="M541.5 643.808V381.808H346.5V643.808H541.5Z" fill="#2F2E41"/>
<path d="M575 373.808H313V477.808H575V373.808Z" fill="#3F3D56"/>
<path d="M575 489.808H313V593.808H575V489.808Z" fill="#3F3D56"/>
<path d="M575 605.808H313V709.808H575V605.808Z" fill="#3F3D56"/>
<path d="M575 417.903H313V433.903H575V417.903Z" fill="#276EF1"/>
<path d="M575 533.903H313V549.903H575V533.903Z" fill="#276EF1"/>
<path d="M575 649.903H313V665.903H575V649.903Z" fill="#276EF1"/>
<path d="M524 394.808C527.314 394.808 530 392.121 530 388.808C530 385.494 527.314 382.808 524 382.808C520.686 382.808 518 385.494 518 388.808C518 392.121 520.686 394.808 524 394.808Z" fill="#276EF1"/>
<path d="M545 394.808C548.314 394.808 551 392.121 551 388.808C551 385.494 548.314 382.808 545 382.808C541.686 382.808 539 385.494 539 388.808C539 392.121 541.686 394.808 545 394.808Z" fill="#276EF1"/>
<path d="M566 394.808C569.314 394.808 572 392.121 572 388.808C572 385.494 569.314 382.808 566 382.808C562.686 382.808 560 385.494 560 388.808C560 392.121 562.686 394.808 566 394.808Z" fill="#276EF1"/>
<path d="M524 508.808C527.314 508.808 530 506.121 530 502.808C530 499.494 527.314 496.808 524 496.808C520.686 496.808 518 499.494 518 502.808C518 506.121 520.686 508.808 524 508.808Z" fill="#276EF1"/>
<path d="M545 508.808C548.314 508.808 551 506.121 551 502.808C551 499.494 548.314 496.808 545 496.808C541.686 496.808 539 499.494 539 502.808C539 506.121 541.686 508.808 545 508.808Z" fill="#276EF1"/>
<path d="M566 508.808C569.314 508.808 572 506.121 572 502.808C572 499.494 569.314 496.808 566 496.808C562.686 496.808 560 499.494 560 502.808C560 506.121 562.686 508.808 566 508.808Z" fill="#276EF1"/>
<path d="M524 622.808C527.314 622.808 530 620.121 530 616.808C530 613.494 527.314 610.808 524 610.808C520.686 610.808 518 613.494 518 616.808C518 620.121 520.686 622.808 524 622.808Z" fill="#276EF1"/>
<path d="M545 622.808C548.314 622.808 551 620.121 551 616.808C551 613.494 548.314 610.808 545 610.808C541.686 610.808 539 613.494 539 616.808C539 620.121 541.686 622.808 545 622.808Z" fill="#276EF1"/>
<path d="M566 622.808C569.314 622.808 572 620.121 572 616.808C572 613.494 569.314 610.808 566 610.808C562.686 610.808 560 613.494 560 616.808C560 620.121 562.686 622.808 566 622.808Z" fill="#276EF1"/>
<path d="M888 708.807H0V710.807H888V708.807Z" fill="#3F3D56"/>
<path d="M241.879 271.065V457.057C241.878 460.948 240.332 464.679 237.581 467.431C234.829 470.182 231.098 471.728 227.207 471.729H154.928C151.036 471.729 147.303 470.184 144.551 467.432C141.798 464.681 140.251 460.949 140.25 457.057V271.065C140.251 267.173 141.798 263.441 144.551 260.689C147.303 257.938 151.036 256.392 154.928 256.393H163.696C163.266 257.451 163.102 258.6 163.219 259.737C163.336 260.873 163.731 261.964 164.368 262.913C165.006 263.861 165.867 264.639 166.875 265.177C167.883 265.715 169.008 265.997 170.151 265.999H211.36C212.503 265.997 213.628 265.715 214.636 265.177C215.644 264.639 216.505 263.861 217.143 262.913C217.78 261.964 218.175 260.873 218.292 259.737C218.409 258.6 218.245 257.451 217.815 256.393H227.207C231.098 256.393 234.829 257.939 237.581 260.691C240.332 263.442 241.878 267.174 241.879 271.065V271.065Z" fill="#3F3D56"/>
<path d="M237.064 291.91H145.064V419.91H237.064V291.91Z" fill="black"/>
<path d="M207.905 379.927H171.186V382.025H207.905V379.927Z" fill="#3F3D56"/>
<path d="M227.966 387.632H171.148V389.73H227.966V387.632Z" fill="#05368F"/>
<path d="M215.737 394.89H171.148V396.988H215.737V394.89Z" fill="#3F3D56"/>
<path d="M197.377 402.148H171.148V404.247H197.377V402.148Z" fill="#3F3D56"/>
<path d="M210.491 409.407H171.148V411.505H210.491V409.407Z" fill="#3F3D56"/>
<path d="M158.73 379.324H154.533V383.521H158.73V379.324Z" fill="#3F3D56"/>
<path d="M158.73 386.582H154.533V390.779H158.73V386.582Z" fill="#05368F"/>
<path d="M158.73 393.841H154.533V398.037H158.73V393.841Z" fill="#3F3D56"/>
<path d="M158.73 401.1H154.533V405.296H158.73V401.1Z" fill="#3F3D56"/>
<path d="M158.73 408.358H154.533V412.555H158.73V408.358Z" fill="#3F3D56"/>
<path d="M209.749 307.91H172.751V344.908H209.749V307.91Z" fill="#3F3D56"/>
<path d="M566.994 0.139648H321.11V157.615H566.994V0.139648Z" fill="#3F3D56"/>
<path d="M543.508 44.1953H339.646V121.23H543.508V44.1953Z" fill="black"/>
<path d="M425.716 57.542H376.789V60.3378H425.716V57.542Z" fill="#3F3D56"/>
<path d="M452.446 67.8076H376.74V70.6034H452.446V67.8076Z" fill="#05368F"/>
<path d="M436.151 77.4785H376.74V80.2743H436.151V77.4785Z" fill="#3F3D56"/>
<path d="M411.688 87.1504H376.74V89.9462H411.688V87.1504Z" fill="#3F3D56"/>
<path d="M429.162 96.8223H376.74V99.6181H429.162V96.8223Z" fill="#3F3D56"/>
<path d="M360.193 56.7383H354.602V62.3299H360.193V56.7383Z" fill="#3F3D56"/>
<path d="M360.193 66.4092H354.602V72.0008H360.193V66.4092Z" fill="#05368F"/>
<path d="M360.193 76.0811H354.602V81.6727H360.193V76.0811Z" fill="#3F3D56"/>
<path d="M360.193 85.7529H354.602V91.3446H360.193V85.7529Z" fill="#3F3D56"/>
<path d="M360.193 95.4238H354.602V101.015H360.193V95.4238Z" fill="#3F3D56"/>
<path d="M533.504 53.8477H483.445V103.906H533.504V53.8477Z" fill="#3F3D56"/>
<path d="M566.89 0H321.006V10.446H566.89V0Z" fill="#05368F"/>
<path d="M328.769 7.43786C329.927 7.43786 330.866 6.49906 330.866 5.341C330.866 4.18294 329.927 3.24414 328.769 3.24414C327.611 3.24414 326.672 4.18294 326.672 5.341C326.672 6.49906 327.611 7.43786 328.769 7.43786Z" fill="black"/>
<path d="M336.117 7.43786C337.275 7.43786 338.214 6.49906 338.214 5.341C338.214 4.18294 337.275 3.24414 336.117 3.24414C334.959 3.24414 334.021 4.18294 334.021 5.341C334.021 6.49906 334.959 7.43786 336.117 7.43786Z" fill="black"/>
<path d="M343.466 7.43786C344.624 7.43786 345.563 6.49906 345.563 5.341C345.563 4.18294 344.624 3.24414 343.466 3.24414C342.308 3.24414 341.369 4.18294 341.369 5.341C341.369 6.49906 342.308 7.43786 343.466 7.43786Z" fill="black"/>
<path d="M731.647 294.808H671.647V325.808H731.647V294.808Z" fill="#3F3D56"/>
<path d="M731.647 405.808H671.647V436.808H731.647V405.808Z" fill="#3F3D56"/>
<path d="M701.647 415.808C729.262 415.808 751.647 393.422 751.647 365.808C751.647 338.193 729.262 315.808 701.647 315.808C674.033 315.808 651.647 338.193 651.647 365.808C651.647 393.422 674.033 415.808 701.647 415.808Z" fill="#3F3D56"/>
<path d="M701.647 404.808C723.187 404.808 740.647 387.347 740.647 365.808C740.647 344.269 723.187 326.808 701.647 326.808C680.108 326.808 662.647 344.269 662.647 365.808C662.647 387.347 680.108 404.808 701.647 404.808Z" fill="black"/>
<path d="M719.124 355.122H688.877V356.85H719.124V355.122Z" fill="#2F2E41"/>
<path d="M735.647 361.468H688.846V363.196H735.647V361.468Z" fill="#05368F"/>
<path d="M725.574 367.447H688.846V369.176H725.574V367.447Z" fill="#2F2E41"/>
<path d="M710.451 373.426H688.846V375.154H710.451V373.426Z" fill="#2F2E41"/>
<path d="M721.253 379.405H688.846V381.134H721.253V379.405Z" fill="#2F2E41"/>
<path d="M678.617 354.625H675.16V358.082H678.617V354.625Z" fill="#2F2E41"/>
<path d="M678.617 360.604H675.16V364.06H678.617V360.604Z" fill="#05368F"/>
<path d="M678.617 366.583H675.16V370.04H678.617V366.583Z" fill="#2F2E41"/>
<path d="M678.617 372.562H675.16V376.018H678.617V372.562Z" fill="#2F2E41"/>
<path d="M678.617 378.541H675.16V381.998H678.617V378.541Z" fill="#2F2E41"/>
</g>
<defs>
<clipPath id="clip0_621_341">
<rect width="888" height="710.807" fill="white"/>
</clipPath>
</defs>
</svg>
